<mxfile host="app.diagrams.net" modified="2023-06-19T08:25:54.639Z" agent="Mozilla/5.0 (Windows NT 10.0; Win64; x64) AppleWebKit/537.36 (KHTML, like Gecko) Chrome/114.0.0.0 Safari/537.36" etag="49pKCfVzWusgGrDM53Aj" version="21.4.0" type="device">
  <diagram name="Page-1" id="9L-cqeUYG5vtst7v1tBF">
    <mxGraphModel dx="548" dy="289" grid="1" gridSize="10" guides="1" tooltips="1" connect="1" arrows="1" fold="1" page="1" pageScale="1" pageWidth="850" pageHeight="1100" math="0" shadow="0">
      <root>
        <mxCell id="0" />
        <mxCell id="1" parent="0" />
        <mxCell id="yaiQxkywuJ7yMp6sqNk3-1" value="" style="rounded=1;whiteSpace=wrap;html=1;fillColor=#ffe6cc;strokeColor=#d79b00;" vertex="1" parent="1">
          <mxGeometry x="440" y="120" width="200" height="270" as="geometry" />
        </mxCell>
        <mxCell id="yaiQxkywuJ7yMp6sqNk3-3" value="Virtual Machine" style="text;html=1;strokeColor=none;fillColor=none;align=center;verticalAlign=middle;whiteSpace=wrap;rounded=0;fontSize=14;" vertex="1" parent="1">
          <mxGeometry x="510" y="130" width="60" height="30" as="geometry" />
        </mxCell>
        <mxCell id="yaiQxkywuJ7yMp6sqNk3-6" value="Hardware&lt;br&gt;(AMD64, ARM)" style="rounded=1;whiteSpace=wrap;html=1;fillColor=#f5f5f5;fontColor=#333333;strokeColor=#666666;" vertex="1" parent="1">
          <mxGeometry x="480" y="340" width="120" height="30" as="geometry" />
        </mxCell>
        <mxCell id="yaiQxkywuJ7yMp6sqNk3-7" value="OS&lt;br&gt;(Linux, Windows)" style="rounded=1;whiteSpace=wrap;html=1;fillColor=#f5f5f5;fontColor=#333333;strokeColor=#666666;" vertex="1" parent="1">
          <mxGeometry x="480" y="290" width="120" height="30" as="geometry" />
        </mxCell>
        <mxCell id="yaiQxkywuJ7yMp6sqNk3-8" value="Docker" style="rounded=1;whiteSpace=wrap;html=1;fillColor=#f5f5f5;fontColor=#333333;strokeColor=#666666;" vertex="1" parent="1">
          <mxGeometry x="480" y="240" width="120" height="30" as="geometry" />
        </mxCell>
        <mxCell id="yaiQxkywuJ7yMp6sqNk3-2" value="" style="shape=image;verticalLabelPosition=bottom;labelBackgroundColor=default;verticalAlign=top;aspect=fixed;imageAspect=0;image=https://wazuh.com/uploads/2022/02/docker-post-icon.png;" vertex="1" parent="1">
          <mxGeometry x="480" y="235" width="40" height="40" as="geometry" />
        </mxCell>
        <mxCell id="yaiQxkywuJ7yMp6sqNk3-12" value="Docker Image" style="ellipse;whiteSpace=wrap;html=1;fillColor=#dae8fc;strokeColor=#6c8ebf;" vertex="1" parent="1">
          <mxGeometry x="500" y="170" width="120" height="40" as="geometry" />
        </mxCell>
        <mxCell id="yaiQxkywuJ7yMp6sqNk3-11" value="Docker Image" style="ellipse;whiteSpace=wrap;html=1;fillColor=#dae8fc;strokeColor=#6c8ebf;" vertex="1" parent="1">
          <mxGeometry x="490" y="180" width="120" height="40" as="geometry" />
        </mxCell>
        <mxCell id="yaiQxkywuJ7yMp6sqNk3-10" value="&amp;nbsp; &amp;nbsp; &amp;nbsp; &amp;nbsp; &amp;nbsp; Docker Image" style="ellipse;whiteSpace=wrap;html=1;fillColor=#dae8fc;strokeColor=#6c8ebf;" vertex="1" parent="1">
          <mxGeometry x="480" y="190" width="120" height="40" as="geometry" />
        </mxCell>
        <mxCell id="yaiQxkywuJ7yMp6sqNk3-16" style="edgeStyle=orthogonalEdgeStyle;rounded=0;orthogonalLoop=1;jettySize=auto;html=1;exitX=1;exitY=0.5;exitDx=0;exitDy=0;" edge="1" parent="1" source="yaiQxkywuJ7yMp6sqNk3-14" target="yaiQxkywuJ7yMp6sqNk3-1">
          <mxGeometry relative="1" as="geometry" />
        </mxCell>
        <mxCell id="yaiQxkywuJ7yMp6sqNk3-14" value="&lt;font style=&quot;font-size: 14px;&quot;&gt;Firewall&lt;/font&gt;" style="rounded=0;whiteSpace=wrap;html=1;fillColor=#f8cecc;strokeColor=#b85450;" vertex="1" parent="1">
          <mxGeometry x="350" y="120" width="50" height="270" as="geometry" />
        </mxCell>
        <mxCell id="yaiQxkywuJ7yMp6sqNk3-23" value="" style="shape=image;verticalLabelPosition=bottom;labelBackgroundColor=default;verticalAlign=top;aspect=fixed;imageAspect=0;image=https://go.dev/blog/go-brand/Go-Logo/PNG/Go-Logo_Blue.png;" vertex="1" parent="1">
          <mxGeometry x="480" y="193.75" width="36.76" height="32.5" as="geometry" />
        </mxCell>
      </root>
    </mxGraphModel>
  </diagram>
</mxfile>
